<?xml version="1.0" encoding="utf-8"?>
<!-- Generator: Adobe Illustrator 21.1.0, SVG Export Plug-In . SVG Version: 6.00 Build 0)  -->
<svg version="1.1" xmlns="http://www.w3.org/2000/svg" xmlns:xlink="http://www.w3.org/1999/xlink" x="0px" y="0px"
	 viewBox="0 0 1024 768" style="enable-background:new 0 0 1024 768;" xml:space="preserve">
<style type="text/css">
	.st0{display:none;}
	.st1{display:inline;fill:#343A40;}
	.st2{fill:#444B4F;}
	.st3{fill:none;stroke:#F4F4F4;stroke-width:3;stroke-linecap:round;stroke-linejoin:round;stroke-miterlimit:10;}
	.st4{display:inline;fill:#DE8E68;}
	.st5{display:inline;fill:#56CAD8;}
	.st6{display:inline;fill:#FED385;}
	.st7{display:inline;fill:#E2B56D;}
	.st8{display:inline;}
	.st9{fill:#FCE9E1;}
	.st10{fill:#175C97;}
	.st11{fill:#1D71B9;}
	.st12{fill:#74D5DE;}
	.st13{display:inline;fill:#D18162;}
	.st14{display:inline;fill:#FD8369;}
	.st15{display:inline;fill:#74D5DE;}
	.st16{display:inline;fill:#333333;}
	.st17{fill:#E5B56A;}
	.st18{display:inline;fill:none;stroke:#E5B56A;stroke-width:2;stroke-linecap:round;stroke-linejoin:round;stroke-miterlimit:10;}
	.st19{display:inline;fill:none;stroke:#E2E2E2;stroke-width:5;stroke-miterlimit:10;}
	.st20{fill:#EC584A;}
	.st21{fill:#D1352F;}
	.st22{fill:#5E313E;}
	.st23{fill:#48292F;}
	.st24{fill:#FFC442;}
	.st25{fill:#FEA632;}
	.st26{display:inline;fill:#5E313E;}
	.st27{display:inline;fill:#48292F;}
	.st28{fill:#FFFFFF;}
	.st29{fill:#FED385;}
	.st30{fill:#D18162;}
	.st31{fill:#DE8E68;}
	.st32{fill:#FD8369;}
	.st33{fill:#F8A81B;}
	.st34{fill:#F26865;}
	.st35{fill:#56CAD8;}
	.st36{fill:#333333;}
	.st37{fill:none;stroke:#E5B56A;stroke-width:2;stroke-linecap:round;stroke-linejoin:round;stroke-miterlimit:10;}
	.st38{fill:#F39D0A;}
	.st39{fill:none;stroke:#FFFFFF;stroke-width:6;stroke-linecap:round;stroke-linejoin:round;stroke-miterlimit:10;}
	.st40{fill:none;stroke:#FFFFFF;stroke-width:5.4884;stroke-linecap:round;stroke-linejoin:round;stroke-miterlimit:10;}
	.st41{fill:none;stroke:#FFFFFF;stroke-width:4.798;stroke-linecap:round;stroke-linejoin:round;stroke-miterlimit:10;}
</style>
<g id="Слой_1">
	<g id="Слой_2" class="st0">
		
			<image style="display:inline;overflow:visible;enable-background:new    ;" width="1510" height="894" xlink:href="A34B7C10.jpeg"  transform="matrix(0.4996 0 0 0.5 -841 -130)">
		</image>
		
			<image style="display:inline;overflow:visible;enable-background:new    ;" width="507" height="347" xlink:href="A34B7C10.jpeg"  transform="matrix(-1 0 0 1 653 -347)">
		</image>
	</g>
	<g id="Слой_4" class="st0">
		<rect x="-107" y="-40" class="st1" width="1407" height="905"/>
	</g>
	<g id="Слой_3">
		<path class="st2" d="M205.1,514.5C88.5,493.9-17.6,317.3,29.4,214.5c37.7-82.5,167.4-103.1,237-102c90.5,1.5,101,40.1,175.8,32
			c102.2-11.1,123.4-87.8,219.2-110C778.9,7.3,882,85,886.6,88.5c147.7,112.7,153.3,375.2,77,420C881.4,556.7,760.5,319.4,553.3,340
			C379.7,357.3,332.4,536.9,205.1,514.5z"/>
		<path class="st3" d="M-69,666c263.8-107.6,743.1-250.3,1182-46c32.5,15.1,65.2,32.4,98,52"/>
	</g>
	<g id="Слой_5" class="st0">
	</g>
	<g id="Слой_1_1_" class="st0">
		<polygon class="st4" points="218,567 164,564 154.3,551.4 162,610 210,612 		"/>
		<polygon class="st5" points="636,534 205,555 205,616 773,629 		"/>
		<path class="st6" d="M717,290c0,0-64,3-128,104c0,0,131,137,189,147s74,13,79,0s-12-54-14-89s-4-38-4-38l28,39l44,49
			c0,0,60-36-77-201c24-18-39-136.8-119-37C711,269,719.5,282.3,717,290z"/>
		<polygon class="st4" points="379,546 351,573 323,581 381,612 418,564 		"/>
		<path class="st7" d="M692,429c0,0,41,90,99,100c48.1,8.3,58.4,20,63.3,16.4c-7.4,7.7-26.1,4.3-76.3-4.4"/>
		<path class="st6" d="M857,541c-0.1,0.2-0.2,0.4-0.2,0.6c-0.6,1.5-1.4,2.8-2.5,3.8c-5,3.6-15.3-8.1-63.3-16.4c-58-10-99-100-99-100
			l151,23C845,487,862,528,857,541z"/>
		<g class="st8">
			<polyline class="st9" points="741.2,357.5 727,347 653,361 625,341 613,346 653,384 727,372 741.2,357.5 			"/>
			<polyline class="st10" points="644,366 662,368 665,487 644,482 644,366 			"/>
			<polygon class="st11" points="745,478 745,357 662,368 665,487 			"/>
			<polygon class="st11" points="644,482 644,366 610,341 605,445 			"/>
		</g>
		<g class="st8">
			<path class="st12" d="M737.3,622.3L510.1,433.5c-16.6-13.8-18.9-38.5-5.1-55.2c12.2-14.7,32.9-18.2,49.1-9.3l258.7,142.6
				c32.5,17.9,44.4,58.8,26.4,91.4c-17.9,32.5-58.8,44.4-91.4,26.4C744.1,627.5,740.4,624.9,737.3,622.3z"/>
		</g>
		<path class="st6" d="M857,541c-0.1,0.2-0.2,0.4-0.2,0.6c-0.8,1.9-1.5,3.1-2.5,3.8c-5,3.6-8.3-5.1-56.3-13.4c-58-10-86-90-86-90
			l131,10C845,487,862,528,857,541z"/>
		<path class="st4" d="M758,470l137,36.6c10.8,2,21.3-5.2,23.3-16l0.9-5.1c2-10.8-5.2-21.3-16-23.3L766,443l-35.5-26.2
			c-1.7-1.3-4.1,0.6-3.2,2.6L733,432l-35-7c-2.8-0.6-5.7,1.1-6.5,3.9l-3.2,10.7c-0.8,2.5,0.4,5.3,2.7,6.6l33.4,18.4
			c1.7,1,3.6,1.6,5.6,1.8L758,470z"/>
		<path class="st13" d="M785,292c-2.7,28-27.9,48.8-27.9,48.8S735.3,315,738,287s12.9-49.3,28.9-47.8C782.8,240.8,787.7,264,785,292
			z"/>
		<path class="st4" d="M794.7,243.5c-7.1,25-27.7,41-46,35.8S723,235,730.1,210s26-26.4,44.4-21.2
			C792.7,194,801.8,218.5,794.7,243.5z"/>
		<path class="st14" d="M805.9,203.4c1.3-3,2.1-6.4,2.1-9.9c0-13.5-11-24.5-24.5-24.5c-4.9,0-9.5,1.5-13.4,4
			c-6.8-6.6-17.2-11-25.6-11c-13.5,0-32.5,11.5-32.5,25s19,24,32.5,24c5.6,0,12.2-1.8,18-4.9c3.9,6.5,10.6,11,18.5,11.8v0.1
			c0,9.4,7.6,21,17,21s15-10.6,15-20C813,214.3,810,208.2,805.9,203.4z"/>
		<polygon class="st15" points="506,378 363,542 431,583 540.5,445.5 		"/>
		<path class="st15" d="M539,455c0,0,103,164.7,221.6,180.9s-148-146.7-148-146.7L539,455z"/>
		<path class="st16" d="M387,604c0,0-39-8-50-27c0,0-31,0-53-9s-3,16-3,16l86,45C367,629,389,619,387,604z"/>
		<path class="st16" d="M171.3,611.2c0,0-20-34.4-13.2-55.3c0,0-20.7-23.1-28.6-45.5c-8-22.4-13.9,8.4-13.9,8.4l15.4,82.3
			c0.9,5.1,4.5,9.2,9.4,10.9C149.6,615.2,164.7,618.8,171.3,611.2z"/>
		<g class="st8">
			<path class="st17" d="M831.3,306.2c-0.9,0.2-2,0.7-2.9,1.2c-1,0.5-1.9,1.1-2.8,1.7c-1.8,1.3-3.4,2.8-4.7,4.5
				c-1.4,1.7-2.5,3.6-3.5,5.6c-0.4,1-0.9,2-1.2,3.1l-0.5,1.6c-0.2,0.5-0.3,1.1-0.4,1.6c-1.1,4.3-1.6,8.8-1.6,13.3
				c0,1.1,0,2.3,0.1,3.4l0.2,3.4c0.1,1.1,0.3,2.3,0.4,3.4c0.1,1.1,0.3,2.3,0.5,3.4c1.4,9,3.9,17.8,6.8,26.4
				c3,8.6,6.5,17.1,10.3,25.5l0,0c0.5,1,0,2.2-1,2.6c-1,0.5-2.2,0-2.6-1l0,0c-3.7-8.5-7.2-17.1-10.1-25.9
				c-2.9-8.8-5.3-17.9-6.6-27.1c-0.2-1.2-0.3-2.3-0.4-3.5c-0.1-1.2-0.3-2.3-0.3-3.5l-0.2-3.5c-0.1-1.2,0-2.4,0-3.5
				c0.1-4.7,0.6-9.4,1.9-14c0.2-0.6,0.3-1.2,0.5-1.7l0.6-1.7c0.4-1.1,0.9-2.2,1.4-3.3c1.1-2.1,2.3-4.2,3.9-6.1
				c1.5-1.9,3.3-3.5,5.3-4.9c1-0.7,2-1.3,3.1-1.9c1.1-0.5,2.2-1,3.5-1.3c0.6-0.2,1.3,0.2,1.5,0.9C832.4,305.3,832,306,831.3,306.2
				L831.3,306.2z"/>
		</g>
		<path class="st18" d="M801.5,299.5c0,0,14-17,3-34"/>
		<path class="st18" d="M722.5,269.5c0,0-2,19,2,22"/>
		
			<ellipse transform="matrix(0.4416 -0.8972 0.8972 0.4416 227.9249 850.46)" class="st4" cx="797.2" cy="242.1" rx="10.4" ry="6.9"/>
	</g>
	<g id="Слой_7" class="st0">
		<path class="st19" d="M-83,613c262.6-75.3,699.2-156.7,1202-38c146,34.5,275.6,80.6,388,130"/>
	</g>
	<g id="Слой_6" class="st0">
		
			<image style="display:inline;overflow:visible;enable-background:new    ;" width="600" height="620" xlink:href="A34B7C12.jpeg"  transform="matrix(1 0 0 1 -894 -214)">
		</image>
		<g class="st8">
			<rect x="373" y="127" class="st20" width="137.9" height="457"/>
			<rect x="441.5" y="127" class="st21" width="69.3" height="457"/>
			<rect x="373" y="487.9" class="st22" width="137.9" height="9.2"/>
			<rect x="440.7" y="487.9" class="st23" width="69.3" height="9.2"/>
			<rect x="373" y="194.7" class="st24" width="137.9" height="32.6"/>
			<rect x="442.3" y="194.7" class="st25" width="68.5" height="32.6"/>
			<circle class="st22" cx="441.5" cy="335.9" r="53.5"/>
			<path class="st23" d="M495.8,335.9c0,29.5-23.9,53.5-53.5,53.5v-107C471.9,282.4,495.8,306.3,495.8,335.9z"/>
		</g>
		<g class="st8">
			<rect x="520.9" y="127" class="st20" width="74.4" height="457"/>
			<rect x="557.8" y="127" class="st21" width="37.4" height="457"/>
			<rect x="520.9" y="487.9" class="st22" width="74.4" height="46"/>
			<rect x="557.4" y="487.9" class="st23" width="37.4" height="46"/>
			<rect x="520.9" y="194.7" class="st24" width="74.4" height="32.6"/>
			<rect x="558.3" y="194.7" class="st25" width="37" height="32.6"/>
		</g>
		<g class="st8">
			
				<rect x="638.7" y="127" transform="matrix(0.9835 -0.181 0.181 0.9835 -53.528 124.4261)" class="st20" width="32.6" height="457"/>
			
				<rect x="654.7" y="125.5" transform="matrix(0.9835 -0.181 0.181 0.9835 -53.1283 125.8305)" class="st21" width="16.4" height="457"/>
			
				<rect x="666.8" y="485.4" transform="matrix(0.9835 -0.181 0.181 0.9835 -80.7395 132.0397)" class="st22" width="32.6" height="46"/>
			
				<rect x="682.7" y="483.9" transform="matrix(0.9835 -0.181 0.181 0.9835 -80.3386 133.4243)" class="st23" width="16.4" height="46"/>
			
				<rect x="612.5" y="197.1" transform="matrix(0.9835 -0.181 0.181 0.9835 -28.2414 117.339)" class="st24" width="32.6" height="32.6"/>
			
				<rect x="628.8" y="195.6" transform="matrix(0.9835 -0.181 0.181 0.9835 -27.8349 118.7795)" class="st25" width="16.2" height="32.6"/>
		</g>
		<rect x="530.9" y="371.8" class="st26" width="53.5" height="85.2"/>
		<rect x="557.6" y="371.8" class="st27" width="26.7" height="85.2"/>
	</g>
</g>
<g id="Слой_2_1_">
	
		<image style="overflow:visible;" width="1500" height="1074" xlink:href="A34B7C13.jpg"  transform="matrix(1.393 0 0 1.393 -2326.3113 -933.0866)">
	</image>
	
		<image style="display:none;overflow:visible;opacity:0.45;" width="351" height="323" xlink:href="A34B7C10.jpg"  transform="matrix(2.4551 0 0 2.4551 0 -53)">
	</image>
	
		<image style="overflow:visible;" width="653" height="430" xlink:href="A34B7C12.jpg"  transform="matrix(1.657 0 0 1.657 -58 -824.1118)">
	</image>
</g>
<g id="Слой_4_1_">
	<path class="st28" d="M287.9,227.5H113.1c-3.5,0-6.5-2.8-6.5-6.3c-0.3-23.2,19.2-44.8,46.9-50.3c24.8-4.9,48.5,4.7,59.3,22.2
		c16.9-0.4,31.6,6.7,37.5,18.4c0.3-0.1,0.6-0.1,0.9-0.2c17.7-3.5,34.1,3,38,14.7C289.4,226.7,288.7,227.5,287.9,227.5z"/>
	<path class="st28" d="M884.3,301.6H782.6c-2.1,0-3.8-1.6-3.8-3.7c-0.2-13.5,11.2-26.1,27.3-29.3c14.4-2.9,28.2,2.7,34.5,12.9
		c9.8-0.3,18.4,3.9,21.8,10.7c0.2,0,0.3-0.1,0.5-0.1c10.3-2,19.8,1.8,22.1,8.5C885.1,301.1,884.8,301.6,884.3,301.6z"/>
</g>
<g id="Слой_3_1_">
	<path class="st29" d="M481.8,266.5L468,256.4c-9.8-7.1-12.6-16.3-8.2-24.8c2.4-4.8,6.8-8.3,11.8-10.2l33.6-12.2l72.4,3
		c6.6,1.6,12.8,4.7,17.9,9.2v0c12.3,10.7,10.3,30.3-3.8,38.3l-19.1,10.9L481.8,266.5z"/>
	<path class="st29" d="M462.2,250.1l150.7-3.4c11.4-0.3,22.6,3.7,31.9,11.2l0,0c22.6,18.3,38.6,45.2,45.3,75.8l19.8,91.3
		c3.1,14.1-1.5,29-11.7,37.8l-92.3,80.4l-208.9-49l-20.7-25.6c-9.8-12.1-13.7-29.1-10.2-45.1l18.1-83.2
		c5.8-26.7,18.8-50.8,37.2-68.7l7.4-7.2C438.1,255.5,449.9,250.4,462.2,250.1z"/>
	<path class="st30" d="M535.6,263.2h-4.3c-12.4,0-22.4-10-22.4-22.4v-63.1H558v63.1C558,253.1,548,263.2,535.6,263.2z"/>
	<path class="st31" d="M559.2,179.1c-11.1,30.6-38.2,48.9-60.7,40.7s-28.3-57.6-17.2-88.2c11.1-30.6,34.8-30.7,57.3-22.6
		S570.3,148.5,559.2,179.1z"/>
	<path class="st32" d="M576.8,130c1.9-3.7,3.2-7.8,3.5-12.2c1.2-16.9-11.6-31.6-28.5-32.8c-6.2-0.4-12,1-17.1,3.8
		c-7.9-8.8-20.6-15.2-31-16c-16.9-1.2-41.6,11.5-42.8,28.4c-1.2,16.9,21.6,31.7,38.5,32.9c7,0.5,15.4-1.2,22.9-4.6
		c4.3,8.4,12.3,14.7,22.1,16.4c0,0.1,0,0.1,0,0.2c-0.8,11.7,7.7,26.9,19.4,27.7c11.7,0.8,19.7-11.9,20.5-23.7
		C584.7,144.2,581.5,136.4,576.8,130z"/>
	<ellipse transform="matrix(0.5034 -0.864 0.864 0.5034 135.3479 568.7692)" class="st31" cx="562.5" cy="166.6" rx="13" ry="8.7"/>
	<path class="st33" d="M419.4,354.1c0,0,79.5-41.2,115.1,47.6L419.4,354.1z"/>
	<path class="st33" d="M646.8,351.4c0,0-80.9-38.4-113.3,51.6L646.8,351.4z"/>
	<polygon class="st34" points="411.7,349 533.5,399.7 652.3,349 652.3,516.5 544.3,562.3 409,516.4 	"/>
	<g>
		<polygon class="st31" points="725.3,616.6 743.3,626.6 762.9,611.2 771.8,586.7 765.2,586.5 727.1,593.7 		"/>
		<path class="st12" d="M734.6,590.5l1.2,34.7l-423.6-52.1c-25.3-8.2-39.1-35.4-30.8-60.6l0,0c8.2-25.3,35.4-39.1,60.6-30.8
			L734.6,590.5z"/>
		<g>
			<polygon class="st31" points="321,616.3 312.1,620.2 289.2,577.9 295.3,577.8 328.5,586.2 			"/>
			<path class="st35" d="M321.1,583.5l-2.3,34.8l425.3-37.6c25.5-7.4,40.2-34.2,32.7-59.8l0,0c-7.4-25.7-34.1-40.5-59.6-33.1
				L321.1,583.5z"/>
			<path class="st36" d="M316,618.5c0,0-22.1-23.2-20.6-40.7c0,0-20.5-14.2-30.9-30.2c-10.4-16-9.3,9.2-9.3,9.2l36.1,69.1
				C291.3,625.9,310.4,629.3,316,618.5z"/>
		</g>
		<path class="st36" d="M743.3,626.6c0,0,22.8-22.4,22-40c0,0,20.9-13.5,31.8-29.2s9,9.5,9,9.5l-38.4,67.9
			C767.7,634.7,748.5,637.6,743.3,626.6z"/>
	</g>
	<g>
		<path class="st17" d="M601,248.8c0,0-0.1,0-0.3,0.1l-0.4,0.1c-0.3,0.1-0.6,0.2-0.8,0.3c-0.6,0.2-1.1,0.4-1.6,0.6
			c-1.1,0.5-2.1,1-3.1,1.6c-2,1.3-3.9,2.8-5.5,4.5c-3.2,3.5-5.5,7.8-6.7,12.3c-1.3,4.6-1.7,9.4-1.6,14.2c0.1,4.8,0.8,9.6,1.8,14.4
			l0,0c0.2,0.9-0.4,1.8-1.3,2c-0.9,0.2-1.8-0.4-2-1.3c0,0,0,0,0,0c-0.9-4.9-1.5-9.9-1.6-15c0-5,0.5-10.2,2-15
			c1.5-4.9,4-9.5,7.6-13.2c1.8-1.8,3.8-3.4,6-4.7c1.1-0.6,2.3-1.2,3.5-1.7c0.6-0.2,1.2-0.5,1.8-0.7c0.3-0.1,0.6-0.2,0.9-0.3l0.5-0.1
			c0.2,0,0.3-0.1,0.6-0.1c0.6,0,1.1,0.4,1.1,1S601.6,248.8,601,248.8z"/>
	</g>
	<path class="st37" d="M565.5,261.5c0,0,14-17,3-34"/>
	<path class="st37" d="M486.5,231.5c0,0-2,19,2,22"/>
	<g>
		<path class="st38" d="M758,133.9h-84c-6.6,0-12-5.4-12-12V81c0-6.6,5.4-12,12-12h84c6.6,0,12,5.4,12,12v40.9
			C770,128.5,764.6,133.9,758,133.9z"/>
		<polygon class="st38" points="662,121.6 662,148.4 681.8,126.1 		"/>
		<line class="st39" x1="680.3" y1="85.6" x2="753.8" y2="85.6"/>
		<line class="st40" x1="680.3" y1="101.4" x2="741.8" y2="101.4"/>
		<line class="st41" x1="678.8" y1="117.2" x2="725.8" y2="117.2"/>
	</g>
</g>
</svg>
