<?xml version="1.0" encoding="utf-8"?>
<!-- Generator: Adobe Illustrator 21.1.0, SVG Export Plug-In . SVG Version: 6.00 Build 0)  -->
<svg version="1.1" xmlns="http://www.w3.org/2000/svg" xmlns:xlink="http://www.w3.org/1999/xlink" x="0px" y="0px"
	 viewBox="0 0 1024 768" style="enable-background:new 0 0 1024 768;" xml:space="preserve">
<style type="text/css">
	.st0{display:none;}
	.st1{display:inline;fill:#343A40;}
	.st2{display:inline;fill:#DE8E68;}
	.st3{display:inline;fill:#56CAD8;}
	.st4{display:inline;fill:#FED385;}
	.st5{display:inline;fill:#E2B56D;}
	.st6{display:inline;}
	.st7{fill:#FCE9E1;}
	.st8{fill:#175C97;}
	.st9{fill:#1D71B9;}
	.st10{fill:#74D5DE;}
	.st11{display:inline;fill:#D18162;}
	.st12{display:inline;fill:#FD8369;}
	.st13{display:inline;fill:#74D5DE;}
	.st14{display:inline;fill:#333333;}
	.st15{fill:#E5B56A;}
	.st16{display:inline;fill:none;stroke:#E5B56A;stroke-width:2;stroke-linecap:round;stroke-linejoin:round;stroke-miterlimit:10;}
	.st17{display:inline;fill:none;stroke:#E2E2E2;stroke-width:5;stroke-miterlimit:10;}
	.st18{fill:#EC584A;}
	.st19{fill:#D1352F;}
	.st20{fill:#5E313E;}
	.st21{fill:#48292F;}
	.st22{fill:#FFC442;}
	.st23{fill:#FEA632;}
	.st24{display:inline;fill:#5E313E;}
	.st25{display:inline;fill:#48292F;}
	.st26{fill:#EDEDEB;}
	.st27{fill:#E5E5DF;}
	.st28{fill:none;stroke:#56CAD8;stroke-width:66;stroke-linecap:round;stroke-linejoin:round;stroke-miterlimit:10;}
	.st29{fill:#6DC7CC;}
	.st30{fill:#DE8E68;}
	.st31{fill:#FED385;}
	.st32{fill:#F39D0A;}
	.st33{font-family:'PinsetterLittleChunk-Regular';}
	.st34{font-size:89px;}
	.st35{font-size:39.6257px;}
	.st36{font-size:124.1069px;}
	.st37{font-size:83.0628px;}
	.st38{font-size:89.1449px;}
	.st39{font-size:111.6166px;}
	.st40{font-size:39.0717px;}
	.st41{font-size:55.1926px;}
	.st42{font-size:31.5157px;}
</style>
<g id="Слой_1">
	<g id="Слой_2" class="st0">
		
			<image style="display:inline;overflow:visible;enable-background:new    ;" width="1510" height="894" xlink:href="5CB6E077.jpeg"  transform="matrix(0.4996 0 0 0.5 -841 -130)">
		</image>
		
			<image style="display:inline;overflow:visible;enable-background:new    ;" width="507" height="347" xlink:href="5CB6E077.jpeg"  transform="matrix(-1 0 0 1 653 -347)">
		</image>
	</g>
	<g id="Слой_4" class="st0">
		<rect x="-107" y="-40" class="st1" width="1407" height="905"/>
	</g>
	<g id="Слой_5" class="st0">
	</g>
	<g id="Слой_1_1_" class="st0">
		<polygon class="st2" points="218,567 164,564 154.3,551.4 162,610 210,612 		"/>
		<polygon class="st3" points="636,534 205,555 205,616 773,629 		"/>
		<path class="st4" d="M717,290c0,0-64,3-128,104c0,0,131,137,189,147s74,13,79,0s-12-54-14-89s-4-38-4-38l28,39l44,49
			c0,0,60-36-77-201c24-18-39-136.8-119-37C711,269,719.5,282.3,717,290z"/>
		<polygon class="st2" points="379,546 351,573 323,581 381,612 418,564 		"/>
		<path class="st5" d="M692,429c0,0,41,90,99,100c48.1,8.3,58.4,20,63.3,16.4c-7.4,7.7-26.1,4.3-76.3-4.4"/>
		<path class="st4" d="M857,541c-0.1,0.2-0.2,0.4-0.2,0.6c-0.6,1.5-1.4,2.8-2.5,3.8c-5,3.6-15.3-8.1-63.3-16.4c-58-10-99-100-99-100
			l151,23C845,487,862,528,857,541z"/>
		<g class="st6">
			<polyline class="st7" points="741.2,357.5 727,347 653,361 625,341 613,346 653,384 727,372 741.2,357.5 			"/>
			<polyline class="st8" points="644,366 662,368 665,487 644,482 644,366 			"/>
			<polygon class="st9" points="745,478 745,357 662,368 665,487 			"/>
			<polygon class="st9" points="644,482 644,366 610,341 605,445 			"/>
		</g>
		<g class="st6">
			<path class="st10" d="M737.3,622.3L510.1,433.5c-16.6-13.8-18.9-38.5-5.1-55.2c12.2-14.7,32.9-18.2,49.1-9.3l258.7,142.6
				c32.5,17.9,44.4,58.8,26.4,91.4c-17.9,32.5-58.8,44.4-91.4,26.4C744.1,627.5,740.4,624.9,737.3,622.3z"/>
		</g>
		<path class="st4" d="M857,541c-0.1,0.2-0.2,0.4-0.2,0.6c-0.8,1.9-1.5,3.1-2.5,3.8c-5,3.6-8.3-5.1-56.3-13.4c-58-10-86-90-86-90
			l131,10C845,487,862,528,857,541z"/>
		<path class="st2" d="M758,470l137,36.6c10.8,2,21.3-5.2,23.3-16l0.9-5.1c2-10.8-5.2-21.3-16-23.3L766,443l-35.5-26.2
			c-1.7-1.3-4.1,0.6-3.2,2.6L733,432l-35-7c-2.8-0.6-5.7,1.1-6.5,3.9l-3.2,10.7c-0.8,2.5,0.4,5.3,2.7,6.6l33.4,18.4
			c1.7,1,3.6,1.6,5.6,1.8L758,470z"/>
		<path class="st11" d="M785,292c-2.7,28-27.9,48.8-27.9,48.8S735.3,315,738,287s12.9-49.3,28.9-47.8C782.8,240.8,787.7,264,785,292
			z"/>
		<path class="st2" d="M794.7,243.5c-7.1,25-27.7,41-46,35.8S723,235,730.1,210s26-26.4,44.4-21.2
			C792.7,194,801.8,218.5,794.7,243.5z"/>
		<path class="st12" d="M805.9,203.4c1.3-3,2.1-6.4,2.1-9.9c0-13.5-11-24.5-24.5-24.5c-4.9,0-9.5,1.5-13.4,4
			c-6.8-6.6-17.2-11-25.6-11c-13.5,0-32.5,11.5-32.5,25s19,24,32.5,24c5.6,0,12.2-1.8,18-4.9c3.9,6.5,10.6,11,18.5,11.8v0.1
			c0,9.4,7.6,21,17,21s15-10.6,15-20C813,214.3,810,208.2,805.9,203.4z"/>
		<polygon class="st13" points="506,378 363,542 431,583 540.5,445.5 		"/>
		<path class="st13" d="M539,455c0,0,103,164.7,221.6,180.9s-148-146.7-148-146.7L539,455z"/>
		<path class="st14" d="M387,604c0,0-39-8-50-27c0,0-31,0-53-9s-3,16-3,16l86,45C367,629,389,619,387,604z"/>
		<path class="st14" d="M171.3,611.2c0,0-20-34.4-13.2-55.3c0,0-20.7-23.1-28.6-45.5c-8-22.4-13.9,8.4-13.9,8.4l15.4,82.3
			c0.9,5.1,4.5,9.2,9.4,10.9C149.6,615.2,164.7,618.8,171.3,611.2z"/>
		<g class="st6">
			<path class="st15" d="M831.3,306.2c-0.9,0.2-2,0.7-2.9,1.2c-1,0.5-1.9,1.1-2.8,1.7c-1.8,1.3-3.4,2.8-4.7,4.5
				c-1.4,1.7-2.5,3.6-3.5,5.6c-0.4,1-0.9,2-1.2,3.1l-0.5,1.6c-0.2,0.5-0.3,1.1-0.4,1.6c-1.1,4.3-1.6,8.8-1.6,13.3
				c0,1.1,0,2.3,0.1,3.4l0.2,3.4c0.1,1.1,0.3,2.3,0.4,3.4c0.1,1.1,0.3,2.3,0.5,3.4c1.4,9,3.9,17.8,6.8,26.4
				c3,8.6,6.5,17.1,10.3,25.5l0,0c0.5,1,0,2.2-1,2.6c-1,0.5-2.2,0-2.6-1l0,0c-3.7-8.5-7.2-17.1-10.1-25.9
				c-2.9-8.8-5.3-17.9-6.6-27.1c-0.2-1.2-0.3-2.3-0.4-3.5c-0.1-1.2-0.3-2.3-0.3-3.5l-0.2-3.5c-0.1-1.2,0-2.4,0-3.5
				c0.1-4.7,0.6-9.4,1.9-14c0.2-0.6,0.3-1.2,0.5-1.7l0.6-1.7c0.4-1.1,0.9-2.2,1.4-3.3c1.1-2.1,2.3-4.2,3.9-6.1
				c1.5-1.9,3.3-3.5,5.3-4.9c1-0.7,2-1.3,3.1-1.9c1.1-0.5,2.2-1,3.5-1.3c0.6-0.2,1.3,0.2,1.5,0.9C832.4,305.3,832,306,831.3,306.2
				L831.3,306.2z"/>
		</g>
		<path class="st16" d="M801.5,299.5c0,0,14-17,3-34"/>
		<path class="st16" d="M722.5,269.5c0,0-2,19,2,22"/>
		
			<ellipse transform="matrix(0.4416 -0.8972 0.8972 0.4416 227.9249 850.46)" class="st2" cx="797.2" cy="242.1" rx="10.4" ry="6.9"/>
	</g>
	<g id="Слой_7" class="st0">
		<path class="st17" d="M-83,613c262.6-75.3,699.2-156.7,1202-38c146,34.5,275.6,80.6,388,130"/>
	</g>
	<g id="Слой_6" class="st0">
		
			<image style="display:inline;overflow:visible;enable-background:new    ;" width="600" height="620" xlink:href="5CB6E077.jpeg"  transform="matrix(1 0 0 1 -894 -214)">
		</image>
		<g class="st6">
			<rect x="373" y="127" class="st18" width="137.9" height="457"/>
			<rect x="441.5" y="127" class="st19" width="69.3" height="457"/>
			<rect x="373" y="487.9" class="st20" width="137.9" height="9.2"/>
			<rect x="440.7" y="487.9" class="st21" width="69.3" height="9.2"/>
			<rect x="373" y="194.7" class="st22" width="137.9" height="32.6"/>
			<rect x="442.3" y="194.7" class="st23" width="68.5" height="32.6"/>
			<circle class="st20" cx="441.5" cy="335.9" r="53.5"/>
			<path class="st21" d="M495.8,335.9c0,29.5-23.9,53.5-53.5,53.5v-107C471.9,282.4,495.8,306.3,495.8,335.9z"/>
		</g>
		<g class="st6">
			<rect x="520.9" y="127" class="st18" width="74.4" height="457"/>
			<rect x="557.8" y="127" class="st19" width="37.4" height="457"/>
			<rect x="520.9" y="487.9" class="st20" width="74.4" height="46"/>
			<rect x="557.4" y="487.9" class="st21" width="37.4" height="46"/>
			<rect x="520.9" y="194.7" class="st22" width="74.4" height="32.6"/>
			<rect x="558.3" y="194.7" class="st23" width="37" height="32.6"/>
		</g>
		<g class="st6">
			
				<rect x="638.7" y="127" transform="matrix(0.9835 -0.181 0.181 0.9835 -53.528 124.4261)" class="st18" width="32.6" height="457"/>
			
				<rect x="654.7" y="125.5" transform="matrix(0.9835 -0.181 0.181 0.9835 -53.1283 125.8305)" class="st19" width="16.4" height="457"/>
			
				<rect x="666.8" y="485.4" transform="matrix(0.9835 -0.181 0.181 0.9835 -80.7395 132.0397)" class="st20" width="32.6" height="46"/>
			
				<rect x="682.7" y="483.9" transform="matrix(0.9835 -0.181 0.181 0.9835 -80.3386 133.4243)" class="st21" width="16.4" height="46"/>
			
				<rect x="612.5" y="197.1" transform="matrix(0.9835 -0.181 0.181 0.9835 -28.2414 117.339)" class="st22" width="32.6" height="32.6"/>
			
				<rect x="628.8" y="195.6" transform="matrix(0.9835 -0.181 0.181 0.9835 -27.8349 118.7795)" class="st23" width="16.2" height="32.6"/>
		</g>
		<rect x="530.9" y="371.8" class="st24" width="53.5" height="85.2"/>
		<rect x="557.6" y="371.8" class="st25" width="26.7" height="85.2"/>
	</g>
</g>
<g id="Слой_2_1_">
	
		<image style="display:none;overflow:visible;opacity:0.45;" width="351" height="323" xlink:href="5CB6E065.jpg"  transform="matrix(2.4551 0 0 2.4551 0 -53)">
	</image>
	
		<image style="overflow:visible;" width="653" height="430" xlink:href="5CB6E066.jpg"  transform="matrix(1.657 0 0 1.657 -58 -824.1118)">
	</image>
	<image style="overflow:visible;" width="1500" height="979" xlink:href="5CB6E064.jpg"  transform="matrix(1 0 0 1 -2014 -313)">
	</image>
	<image style="overflow:visible;" width="127" height="151" xlink:href="5CB6E077.jpg"  transform="matrix(1 0 0 1 1164.0424 23)">
	</image>
</g>
<g id="Слой_4_1_">
	<polygon class="st26" points="528.7,346 312.7,195.7 287.3,311 	"/>
	<polygon class="st26" points="536.5,335 698.7,223.7 720.7,255 713.3,369.7 	"/>
	<polygon class="st27" points="536.5,335 754.7,223.7 773.3,275.7 540.7,363 	"/>
	<polygon class="st27" points="506,342.3 266.7,217 266.7,290.3 524,369.7 	"/>
	<polygon class="st10" points="492,335 237,236 237,619 492,713 	"/>
	<polygon class="st10" points="556,335 811,236 811,619 556,713 	"/>
	<line class="st28" x1="524" y1="346" x2="524" y2="705"/>
	<path class="st29" d="M458,452l-15.5,143c-1,9.1-4.7,17.7-10.8,24.5l-6.5,7.4c-6,6.9-9.9,15.4-11.1,24.5l-4,31.4l-43.7-15.3
		L458,452z"/>
	<path class="st29" d="M602.5,474.5L621,600.9c1.4,9.4,6.3,17.9,13.8,23.8l2.8,2.2c3.8,3,6.4,7.3,7.3,12.1l7.1,38.7l24.9-9.2
		L655.3,587L602.5,474.5z"/>
</g>
<g id="Слой_3_1_">
	<path class="st30" d="M662,691.3l-14.7-64.7c-0.8-3.7-2.9-7.1-5.9-9.5l-8.7-7.1c-5.7-4.6-9.5-11.1-10.9-18.3l-29.4-151.4
		c-0.3-1.5,0.4-2.9,1.7-3.7l0,0c1.8-1,4-0.2,4.8,1.7l22.6,52.5c0.3,0.6,0.9,1.1,1.6,1.1h5.4c1,0,1.8-0.9,1.7-1.9l-7.8-91
		c-0.3-3.3,2.3-6.1,5.6-6.1l0,0c2.6,0,4.8,1.8,5.4,4.3c4,16.6,18.6,76.3,21.1,86.7c0.2,0.8,1.1,1.3,1.8,0.9l4.6-2
		c0.5-0.2,0.9-0.8,0.8-1.4l-8.8-99.9c-0.3-3.8,2.7-7.2,6.6-7.2l0,0c3.1,0,5.8,2.2,6.4,5.2c4.1,19.2,18.4,85.9,21,97.9
		c0.2,1,1.3,1.6,2.2,1.2l3.6-1.4c0.7-0.3,1.1-0.9,1.1-1.6l-4.5-81.5c-0.2-3.8,3.4-6.7,7.1-5.7v0c2.1,0.6,3.7,2.4,4,4.5
		c2.4,15.6,12.2,78.5,15.7,100.9c0.8,5.3,2.2,10.5,4,15.5l2.9,7.7c0.5,1.4,1.8,2.3,3.2,2.4l4.6,0.2c2,0.1,3.6-1.4,3.8-3.3l0.9-11.5
		c1.1-14.1,7.9-27.2,18.7-36.3v0c1.3-1.1,3-1.3,4.5-0.5h0c1.5,0.8,2.4,2.4,2.3,4.1l-5.7,57.2l-2.8,42.2c-0.1,1.9-0.6,3.7-1.4,5.4
		l-13,27.2c-1.8,3.8-2.5,8-1.9,12.1l9.7,75.2H662z"/>
	<polygon class="st31" points="655.3,690.7 755.3,683.7 775.3,759.3 657,761 	"/>
	<path class="st30" d="M397.7,691.3l14.7-64.7c0.8-3.7,2.9-7.1,5.9-9.5l8.7-7.1c5.7-4.6,9.5-11.1,10.9-18.3l29.4-151.4
		c0.3-1.5-0.4-2.9-1.7-3.7l0,0c-1.8-1-4-0.2-4.8,1.7l-22.6,52.5c-0.3,0.6-0.9,1.1-1.6,1.1h-5.4c-1,0-1.8-0.9-1.7-1.9l7.8-91
		c0.3-3.3-2.3-6.1-5.6-6.1l0,0c-2.6,0-4.8,1.8-5.4,4.3c-4,16.6-18.6,76.3-21.1,86.7c-0.2,0.8-1.1,1.3-1.8,0.9l-4.6-2
		c-0.5-0.2-0.9-0.8-0.8-1.4l8.8-99.9c0.3-3.8-2.7-7.2-6.6-7.2l0,0c-3.1,0-5.8,2.2-6.4,5.2c-4.1,19.2-18.4,85.9-21,97.9
		c-0.2,1-1.3,1.6-2.2,1.2l-3.6-1.4c-0.7-0.3-1.1-0.9-1.1-1.6l4.5-81.5c0.2-3.8-3.4-6.7-7.1-5.7v0c-2.1,0.6-3.7,2.4-4,4.5
		c-2.4,15.6-12.2,78.5-15.7,100.9c-0.8,5.3-2.2,10.5-4,15.5l-2.9,7.7c-0.5,1.4-1.8,2.3-3.2,2.4l-4.6,0.2c-2,0.1-3.6-1.4-3.8-3.3
		l-0.9-11.5c-1.1-14.1-7.9-27.2-18.7-36.3l0,0c-1.3-1.1-3-1.3-4.5-0.5h0c-1.5,0.8-2.4,2.4-2.3,4.1l5.7,57.2l2.8,42.2
		c0.1,1.9,0.6,3.7,1.4,5.4l13,27.2c1.8,3.8,2.5,8,1.9,12.1l-9.7,75.2H397.7z"/>
	<polygon class="st31" points="404.4,690.7 304.4,683.7 284.4,759.3 402.7,761 	"/>
</g>
<g id="Слой_5_1_">
	<g>
		<text transform="matrix(0.923 -0.3849 0.3849 0.923 422.2521 161.5287)" class="st32 st33 st34">A</text>
	</g>
	<g>
		<text transform="matrix(0.9873 -0.1586 0.1586 0.9873 404.9133 233.3116)" class="st32 st33 st35">E</text>
	</g>
	<g>
		<text transform="matrix(0.8513 0.5247 -0.5247 0.8513 609.8581 161.5289)" class="st32 st33 st36">T</text>
	</g>
	<g>
		<text transform="matrix(0.8229 -0.5682 0.5682 0.8229 313.4393 126.2343)" class="st32 st33 st36">O</text>
	</g>
	<g>
		<text transform="matrix(0.6438 0.7652 -0.7652 0.6438 749.0013 195.6667)" class="st32 st33 st37">Y</text>
	</g>
	<g>
		<text transform="matrix(0.9972 7.529280e-02 -7.529280e-02 0.9972 237.0001 191.7574)" class="st32 st33 st38">P</text>
	</g>
	<g>
		<text transform="matrix(0.9012 0.4334 -0.4334 0.9012 738.4318 91.0124)" class="st32 st33 st39">U</text>
	</g>
	<g>
		<text transform="matrix(0.9972 7.529280e-02 -7.529280e-02 0.9972 483.0001 77.763)" class="st32 st33 st38">I</text>
	</g>
	<g>
		<text transform="matrix(0.9779 0.2092 -0.2092 0.9779 504.5671 179.3949)" class="st32 st33 st38">R</text>
	</g>
	<g>
		<text transform="matrix(0.9779 0.2092 -0.2092 0.9779 592.4142 111.6595)" class="st32 st33 st40">B</text>
	</g>
	<g>
		<text transform="matrix(0.9812 -0.1931 0.1931 0.9812 483.7536 267.067)" class="st32 st33 st41">W</text>
	</g>
	<g>
		<text transform="matrix(0.7961 0.6051 -0.6051 0.7961 557.3363 271.5063)" class="st32 st33 st42">Q</text>
	</g>
</g>
</svg>
